<?xml version="1.0" encoding="UTF-8"?>
<svg width="329px" height="68px" viewBox="0 0 329 68" version="1.1" xmlns="http://www.w3.org/2000/svg" xmlns:xlink="http://www.w3.org/1999/xlink">
    <!-- Generator: Sketch 57.1 (83088) - https://sketch.com -->
    <title>Logo</title>
    <desc>Created with Sketch.</desc>
    <g id="Page-1" stroke="none" stroke-width="1" fill="none" fill-rule="evenodd">
        <g id="Sealab-Logo-White-Text,-White-Red-logo-03.emf" transform="translate(-122.000000, -196.000000)">
            <g id="Logo">
                <polygon id="Fill-1" fill-opacity="0" fill="#000000" points="0 0 600.000019 0 600.000019 450.000014 0 450.000014"></polygon>
                <path d="M235.492134,196.120085 C234.413393,196.143707 233.334653,196.322841 232.301189,196.659455 C229.830716,197.423235 227.809062,199.15355 226.663393,201.466542 C226.011818,202.724416 225.696858,204.275597 225.696858,206.094495 C225.696858,207.937015 226.011818,209.486227 226.663393,210.767723 C227.248039,211.958668 228.078747,213.013786 229.112212,213.844495 C230.055125,214.608275 231.133866,215.19292 232.301189,215.553157 C233.334653,215.889771 234.413393,216.068905 235.492134,216.092527 L249.555126,216.092527 C249.600402,216.090558 249.645677,216.08859 249.692921,216.08859 C250.18111,216.08859 250.653551,216.196857 251.104339,216.362212 C251.555126,216.541346 251.937016,216.811031 252.27363,217.169298 C252.610244,217.529535 252.858276,217.933078 253.013788,218.383865 C253.19489,218.87796 253.283473,219.41733 253.283473,219.933078 C253.283473,221.100401 252.946858,222.021661 252.295284,222.718511 C251.643709,223.415361 250.722449,223.751976 249.555126,223.751976 L225.966543,223.751976 L225.966543,229.862212 L249.555126,229.862212 C250.27363,229.862212 250.97048,229.773629 251.667331,229.637803 C252.43111,229.458669 253.149614,229.210637 253.868118,228.897645 C254.610244,228.559062 255.305126,228.133866 255.956701,227.637803 C256.631898,227.100401 257.238197,226.47048 257.732292,225.751976 C258.24804,224.964574 258.653552,224.08859 258.94489,223.190952 C259.259851,222.133865 259.417331,221.033472 259.417331,219.933078 C259.417331,218.832684 259.259851,217.753944 258.968512,216.698826 C258.675205,215.79922 258.271662,214.946857 257.753945,214.159456 C257.259851,213.462605 256.653552,212.81103 256.001977,212.27166 C254.744103,211.261818 253.283473,210.564967 251.710638,210.2067 C251.015756,210.049219 250.318906,209.937015 249.622055,209.913393 L235.492134,209.913393 C234.346464,209.913393 233.425204,209.576778 232.773629,208.90355 C232.122055,208.2067 231.807094,207.28544 231.807094,206.118117 C231.807094,204.948825 232.122055,204.005912 232.773629,203.309062 C233.425204,202.590558 234.346464,202.253943 235.492134,202.253943 L256.316937,202.253943 L256.316937,196.120085 L235.492134,196.120085 Z" id="Fill-3" fill="#FFFFFF"></path>
                <path d="M272.9193,209.891739 L272.9193,216.068905 L292.216545,216.068905 L292.216545,209.891739 L272.9193,209.891739 Z M267.437016,196.120085 C267.009851,196.120085 266.582686,196.210636 266.200796,196.368117 C265.842528,196.501975 265.505914,196.726384 265.236229,197.019691 C264.942922,197.31103 264.718512,197.647644 264.584654,198.00788 C264.427174,198.38977 264.336623,198.793313 264.336623,199.198825 L264.336623,221.281503 C264.291347,222.651582 264.584654,224.043314 265.212607,225.279535 C266.200796,227.279535 267.99804,228.783472 270.131898,229.413393 C271.031505,229.704732 271.974418,229.840559 272.9193,229.862212 L294.978356,229.862212 L294.978356,223.751976 L272.962607,223.751976 C272.131898,223.751976 271.525599,223.527566 271.098434,223.100401 C270.671269,222.673235 270.470481,222.066936 270.470481,221.281503 L270.470481,202.253943 L294.978356,202.253943 L294.978356,196.120085 L267.437016,196.120085 Z" id="Fill-5" fill="#FFFFFF"></path>
                <path d="M327.868121,202.253943 L327.868121,215.462605 L306.36812,215.462605 L306.36812,212.992133 C306.324813,211.507881 306.570876,210.025597 307.088593,208.633865 C307.492136,207.533471 308.122057,206.500007 308.90749,205.622054 C309.604341,204.858274 310.413396,204.230321 311.332687,203.757881 C312.120089,203.330715 312.974419,202.994101 313.826782,202.748038 C314.523632,202.545282 315.220483,202.387802 315.917333,202.320873 C316.523632,202.275597 316.927175,202.253943 317.106309,202.253943 L327.868121,202.253943 Z M316.956703,196.120085 C314.700797,196.120085 312.470482,196.545282 310.389774,197.377959 C308.389774,198.165361 306.570876,199.354337 305.043317,200.860243 C303.515758,202.387802 302.324813,204.185046 301.515758,206.185046 C300.639773,208.36418 300.212608,210.655519 300.23623,212.992133 L300.23623,229.862212 L306.36812,229.862212 L306.36812,221.572842 L327.868121,221.572842 L327.868121,229.862212 L333.978357,229.862212 L333.978357,199.220479 C334.000011,198.793313 333.911428,198.38977 333.753948,198.00788 C333.438987,197.265754 332.854341,196.681109 332.114184,196.368117 C331.732294,196.210636 331.326782,196.120085 330.899617,196.120085 L317.129931,196.120085 C317.070876,196.120085 317.01379,196.120085 316.956703,196.120085 Z" id="Fill-7" fill="#FFFFFF"></path>
                <path d="M341.100405,196.120085 L341.100405,226.78544 C341.076783,227.188984 341.167334,227.616149 341.324814,227.998039 C341.616153,228.740165 342.200798,229.322842 342.940956,229.637803 C343.322846,229.795283 343.750011,229.862212 344.177176,229.862212 L372.078752,229.862212 L372.078752,223.751976 L347.210641,223.751976 L347.210641,196.120085 L341.100405,196.120085 Z" id="Fill-9" fill="#FFFFFF"></path>
                <path d="M403.553163,202.253943 L403.553163,215.462605 L382.053162,215.462605 L382.031508,212.992133 C382.007886,211.507881 382.255918,210.025597 382.750012,208.633865 C383.177178,207.533471 383.80513,206.500007 384.56891,205.622054 C385.26576,204.858274 386.096469,204.230321 386.996075,203.757881 C387.805131,203.330715 388.635839,202.994101 389.511823,202.748038 C390.185052,202.545282 390.903556,202.387802 391.600406,202.320873 C392.206705,202.275597 392.612217,202.253943 392.791351,202.253943 L403.553163,202.253943 Z M392.639776,196.120085 C390.385839,196.120085 388.177178,196.545282 386.074816,197.377959 C384.074815,198.165361 382.277571,199.354337 380.750012,200.860243 C379.222453,202.387802 378.009855,204.185046 377.222453,206.185046 C376.346469,208.36418 375.921272,210.655519 375.942925,212.992133 L375.942925,229.862212 L382.053162,229.862212 L382.053162,221.572842 L403.553163,221.572842 L403.553163,229.862212 L409.663399,229.862212 L409.685052,199.220479 C409.685052,198.793313 409.618123,198.38977 409.460643,198.00788 C409.145682,197.265754 408.539383,196.681109 407.797257,196.368117 C407.415367,196.210636 407.011824,196.120085 406.608281,196.120085 L392.813005,196.120085 C392.755918,196.120085 392.698831,196.120085 392.639776,196.120085 Z" id="Fill-11" fill="#FFFFFF"></path>
                <path d="M440.259857,202.230321 C441.114187,202.230321 441.541353,202.657487 441.541353,203.533471 L441.541353,204.702762 C441.563006,205.421266 441.427179,206.161424 441.181116,206.858274 C440.708676,208.094495 439.720487,209.082684 438.484266,209.531503 C437.838597,209.761818 437.153557,209.893708 436.484266,209.893708 C436.433085,209.893708 436.379935,209.893708 436.328754,209.891739 L425.299226,209.891739 L425.299226,216.068905 L439.068912,216.068905 C439.811038,216.068905 440.551195,216.181109 441.248046,216.429141 C441.854345,216.675204 442.417337,217.011818 442.887809,217.484259 C443.36025,217.9567 443.720487,218.517724 443.944896,219.124023 C444.214581,219.79922 444.326786,220.539377 444.326786,221.281503 L444.326786,222.427172 C444.326786,222.673235 444.28151,222.942921 444.190959,223.190952 C444.057101,223.505913 443.763794,223.7067 443.42718,223.730321 C443.293321,223.751976 443.157494,223.751976 443.023636,223.751976 L422.850407,223.751976 L422.850407,202.230321 L440.259857,202.230321 Z M419.816943,196.120085 C419.389777,196.120085 418.986234,196.210636 418.580722,196.368117 C418.222454,196.501975 417.88584,196.726384 417.616155,197.019691 C417.053163,197.602369 416.716549,198.38977 416.738202,199.198825 L416.738202,226.78544 C416.716549,227.188984 416.8071,227.616149 416.96458,227.998039 C417.255919,228.740165 417.840565,229.322842 418.580722,229.637803 C418.962612,229.795283 419.389777,229.862212 419.816943,229.862212 L443.023636,229.862212 C443.11025,229.866149 443.196865,229.868118 443.283479,229.868118 C444.403558,229.868118 445.482298,229.600401 446.482298,229.122055 C448.212613,228.24607 449.49214,226.718511 450.055133,224.875991 C450.301196,224.08859 450.437022,223.279535 450.437022,222.448826 L450.437022,221.281503 C450.458676,220.181109 450.324818,219.078747 450.03151,218.001975 C449.807101,217.080716 449.425211,216.181109 448.954739,215.350401 C448.527573,214.586621 447.988203,213.889771 447.381904,213.283471 C446.775605,212.698826 446.12403,212.183078 445.42718,211.755912 C446.212613,210.677172 446.797258,209.486227 447.179148,208.2067 C447.515762,207.082684 447.694896,205.891739 447.718518,204.724416 L447.718518,203.557093 C447.740172,202.366148 447.494109,201.175203 446.976392,200.096463 C446.527573,199.220479 445.875999,198.435046 445.112219,197.805124 C444.393715,197.244101 443.58466,196.793313 442.708676,196.525597 C441.923242,196.277565 441.090565,196.143707 440.28151,196.120085 L419.816943,196.120085 Z" id="Fill-13" fill="#FFFFFF"></path>
                <path d="M212.488196,196.120085 L192.224416,229.862212 L207.748038,229.862212 C213.970479,229.862212 219.001976,224.830716 219.001976,218.608275 L219.001976,196.120085 L212.488196,196.120085 Z" id="Fill-15" fill="#FFFFFF"></path>
                <polygon id="Fill-17" fill="#FFFFFF" points="198.986227 196.120085 178.746069 229.862212 186.159455 229.862212 206.399613 196.120085"></polygon>
                <polygon id="Fill-19" fill="#FFFFFF" points="183.911423 196.120085 163.671265 229.862212 174.230321 229.862212 194.470479 196.120085"></polygon>
                <path d="M162.076777,196.120085 C150.238194,196.120085 139.251973,202.342526 133.16339,212.498038 L122.740161,229.862212 L161.200793,229.862212 L181.440951,196.120085 L162.076777,196.120085 Z" id="Fill-21" fill="#FFFFFF"></path>
                <path d="M131.523626,241.139771 L135.297248,251.362213 L127.771658,251.362213 L131.523626,241.139771 Z M130.783469,239.208669 L123.683075,257.966544 L125.346461,257.966544 L127.277563,252.708669 L135.793311,252.708669 L137.746067,257.966544 L139.3878,257.966544 L132.287406,239.208669 L130.783469,239.208669 Z" id="Fill-23" fill="#FFFFFF"></path>
                <path d="M161.537407,240.555126 C163.064966,240.555126 164.188982,240.848433 164.952761,241.409457 C165.692919,241.994102 166.074808,242.870087 166.074808,244.082685 C166.074808,245.206701 165.716541,246.082685 164.974415,246.688984 C164.255911,247.27363 163.2441,247.586622 161.919297,247.610244 L157.582682,247.610244 L157.582682,240.555126 L161.537407,240.555126 Z M162.458667,248.935047 C163.807092,248.935047 164.86221,249.271662 165.604336,249.968512 C166.368116,250.643709 166.750005,251.541347 166.750005,252.70867 C166.750005,253.94489 166.368116,254.887803 165.55906,255.584654 C164.771659,256.281504 163.692919,256.618118 162.346462,256.618118 L157.582682,256.618118 L157.582682,248.935047 L162.458667,248.935047 Z M155.988194,239.208669 L155.988194,257.966544 L162.279533,257.966544 C164.188982,257.966544 165.671265,257.494103 166.726383,256.572843 C167.805123,255.629929 168.344494,254.350402 168.344494,252.687016 C168.344494,251.586622 168.007879,250.620087 167.332683,249.789378 C166.681108,248.958669 165.805123,248.419299 164.70473,248.19489 C165.62599,247.879929 166.344494,247.362213 166.883864,246.643709 C167.40158,245.925205 167.669297,245.070874 167.669297,244.106307 C167.669297,242.488197 167.153549,241.275598 166.120084,240.442921 C165.086619,239.612212 163.55906,239.208669 161.537407,239.208669 L155.988194,239.208669 Z" id="Fill-25" fill="#FFFFFF"></path>
                <polygon id="Fill-27" fill="#FFFFFF" points="175.712604 238.175204 175.712604 257.966544 177.240163 257.966544 177.240163 238.175204"></polygon>
                <path d="M185.102368,244.015756 L185.102368,253.090559 C185.102368,254.775599 185.50788,256.057095 186.27166,256.933079 C187.057093,257.78741 188.181108,258.212607 189.663392,258.212607 C191.708668,258.212607 193.190951,257.539378 194.112211,256.190953 L194.133864,257.966544 L195.63977,257.966544 L195.63977,244.015756 L194.088589,244.015756 L194.088589,254.10237 C193.503943,255.966544 192.090557,256.887803 189.842526,256.887803 C187.708667,256.887803 186.629927,255.563 186.629927,252.911425 L186.629927,244.015756 L185.102368,244.015756 Z" id="Fill-29" fill="#FFFFFF"></path>
                <path d="M208.444889,245.070874 C209.612211,245.070874 210.555125,245.498039 211.275597,246.328748 C211.994101,247.183079 212.375991,248.283473 212.421267,249.610244 L212.421267,249.789378 L204.062999,249.789378 C204.244101,248.350402 204.714573,247.204732 205.501975,246.35237 C206.309062,245.498039 207.275597,245.070874 208.444889,245.070874 Z M208.444889,243.767724 C207.366148,243.767724 206.354337,244.082685 205.433077,244.688984 C204.490164,245.295283 203.77166,246.149614 203.253944,247.228354 C202.738195,248.283473 202.46851,249.498039 202.46851,250.844496 L202.46851,251.383866 C202.46851,252.687016 202.738195,253.854339 203.277566,254.911425 C203.816936,255.94489 204.557093,256.753945 205.501975,257.336622 C206.466542,257.921268 207.545282,258.212607 208.736227,258.212607 C210.893708,258.212607 212.533471,257.40552 213.655519,255.765756 L212.690952,255.02363 C212.173235,255.696859 211.612211,256.1693 210.960637,256.460638 C210.354337,256.775599 209.612211,256.933079 208.803156,256.933079 C207.411424,256.933079 206.265755,256.393709 205.366148,255.360244 C204.46851,254.281504 204.017723,252.978355 204.017723,251.383866 L204.017723,251.092528 L213.970479,251.092528 L213.970479,250.238197 C213.970479,248.238197 213.454731,246.643709 212.464574,245.498039 C211.476385,244.35237 210.129928,243.767724 208.444889,243.767724 Z" id="Fill-31" fill="#FFFFFF"></path>
                <path d="M225.742133,245.094496 C226.685047,245.094496 227.517724,245.340559 228.190952,245.813 C228.864181,246.285441 229.381897,246.958669 229.740165,247.856307 L229.740165,254.32678 C228.954732,256.033473 227.606306,256.887803 225.72048,256.887803 C224.41733,256.887803 223.405519,256.372055 222.687015,255.360244 C221.990165,254.32678 221.631897,252.911425 221.631897,251.137803 C221.631897,249.159457 221.990165,247.65552 222.708669,246.643709 C223.429141,245.610244 224.438984,245.094496 225.742133,245.094496 Z M225.450795,243.767724 C223.787409,243.767724 222.484259,244.397646 221.517724,245.677173 C220.553157,246.958669 220.059062,248.688984 220.059062,250.868118 L220.059062,251.068906 C220.059062,253.271662 220.553157,255.000008 221.541346,256.281504 C222.507881,257.584654 223.811031,258.212607 225.427173,258.212607 C227.314968,258.212607 228.751976,257.539378 229.740165,256.1693 L229.740165,257.921268 C229.718511,259.269693 229.336622,260.324811 228.618118,261.066937 C227.899614,261.830717 226.887803,262.212607 225.608275,262.212607 C224.102369,262.212607 222.79922,261.53741 221.72048,260.212607 L220.844495,261.133867 C221.362212,261.852371 222.057094,262.437016 222.933078,262.864182 C223.811031,263.313001 224.730322,263.515756 225.72048,263.515756 C227.427173,263.515756 228.797251,262.99804 229.809062,261.942922 C230.797251,260.909457 231.313,259.472449 231.313,257.675205 L231.313,244.015756 L229.85237,244.015756 L229.78544,246.037409 C228.797251,244.50985 227.360243,243.767724 225.450795,243.767724 Z" id="Fill-33" fill="#FFFFFF"></path>
                <path d="M245.151583,243.767724 C243.354338,243.767724 242.029535,244.576779 241.22048,246.240165 L241.198827,244.015756 L239.692921,244.015756 L239.692921,257.966544 L241.22048,257.966544 L241.22048,248.395677 C241.511819,247.362213 241.98426,246.598433 242.635835,246.059063 C243.309063,245.521661 244.118118,245.251976 245.084654,245.251976 C245.442921,245.251976 245.803157,245.27363 246.118118,245.340559 L246.163394,243.925205 C245.915362,243.813 245.578748,243.767724 245.151583,243.767724 Z" id="Fill-35" fill="#FFFFFF"></path>
                <path d="M257.462607,245.070874 C258.383867,245.070874 259.214575,245.318905 259.911426,245.813 C260.62993,246.285441 261.190953,246.980323 261.572843,247.856307 C261.978355,248.755913 262.181111,249.722449 262.181111,250.777567 L262.181111,251.092528 C262.181111,252.844496 261.730323,254.259851 260.877961,255.314969 C260.02363,256.393709 258.877961,256.933079 257.48426,256.933079 C256.092528,256.933079 254.968512,256.393709 254.092528,255.314969 C253.240166,254.259851 252.813,252.889772 252.813,251.204732 L252.813,250.935047 C252.813,249.183079 253.240166,247.767724 254.11615,246.710638 C254.968512,245.610244 256.092528,245.070874 257.462607,245.070874 Z M257.462607,243.767724 C256.271662,243.767724 255.192922,244.061031 254.228355,244.667331 C253.283473,245.251976 252.564969,246.082685 252.025599,247.161425 C251.509851,248.238197 251.261819,249.452764 251.261819,250.777567 L251.261819,251.092528 C251.261819,253.24804 251.824811,254.978355 252.992134,256.281504 C254.137803,257.584654 255.643709,258.212607 257.48426,258.212607 C258.698827,258.212607 259.775599,257.921268 260.720481,257.336622 C261.687016,256.753945 262.40552,255.94489 262.921268,254.86615 C263.438985,253.78741 263.70867,252.553158 263.70867,251.204732 L263.70867,250.889772 C263.70867,248.732291 263.124024,247.025598 261.978355,245.722449 C260.832686,244.419299 259.32678,243.767724 257.462607,243.767724 Z" id="Fill-37" fill="#FFFFFF"></path>
                <polygon id="Fill-39" fill="#FFFFFF" points="268.986229 244.015756 274.22245 257.966544 275.456702 257.966544 280.6693 244.015756 279.074812 244.015756 274.850402 255.832685 270.559064 244.015756"></polygon>
                <path d="M291.834655,245.070874 C293.001978,245.070874 293.944891,245.498039 294.687017,246.328748 C295.405521,247.183079 295.787411,248.283473 295.832687,249.610244 L295.832687,249.789378 L287.452765,249.789378 C287.633867,248.350402 288.10434,247.204732 288.913395,246.35237 C289.700797,245.498039 290.688986,245.070874 291.834655,245.070874 Z M291.834655,243.767724 C290.755915,243.767724 289.744104,244.082685 288.822844,244.688984 C287.903553,245.295283 287.161427,246.149614 286.64371,247.228354 C286.127962,248.283473 285.87993,249.498039 285.87993,250.844496 L285.87993,251.383866 C285.87993,252.687016 286.149615,253.854339 286.667332,254.911425 C287.206702,255.94489 287.94686,256.753945 288.913395,257.336622 C289.856308,257.921268 290.935049,258.212607 292.125994,258.212607 C294.283474,258.212607 295.923238,257.40552 297.068907,255.765756 L296.102372,255.02363 C295.586624,255.696859 295.001978,256.1693 294.372057,256.460638 C293.744104,256.775599 293.0256,256.933079 292.192923,256.933079 C290.822844,256.933079 289.677175,256.393709 288.755915,255.360244 C287.858277,254.281504 287.40749,252.978355 287.40749,251.383866 L287.40749,251.092528 L297.360246,251.092528 L297.360246,250.238197 C297.360246,248.238197 296.866151,246.643709 295.85434,245.498039 C294.866151,244.35237 293.541348,243.767724 291.834655,243.767724 Z" id="Fill-41" fill="#FFFFFF"></path>
                <path d="M321.082687,238.938984 C319.64568,238.938984 318.387805,239.297252 317.287412,239.994102 C316.208672,240.690953 315.354341,241.679142 314.771664,242.982291 C314.187018,244.261819 313.893711,245.746071 313.893711,247.407488 L313.893711,249.856307 C313.917333,251.496071 314.208671,252.956701 314.793317,254.236229 C315.377963,255.496071 316.208672,256.48426 317.26379,257.179142 C318.34253,257.875993 319.57875,258.212607 320.970483,258.212607 C322.948829,258.212607 324.543317,257.696859 325.734262,256.64174 C326.946861,255.608276 327.665365,254.080717 327.868121,252.125992 L326.273632,252.125992 C326.070877,253.698827 325.55316,254.887803 324.722451,255.696859 C323.868121,256.48426 322.610247,256.887803 320.970483,256.887803 C319.285443,256.887803 317.96064,256.236229 316.972451,254.956701 C315.984262,253.653551 315.490168,251.923236 315.490168,249.765756 L315.490168,247.474417 C315.490168,245.228354 316.005916,243.476386 316.994105,242.196858 C318.027569,240.937016 319.375994,240.287409 321.082687,240.287409 C324.137806,240.287409 325.868121,241.881898 326.273632,245.070874 L327.868121,245.070874 C327.688987,243.161425 327.01379,241.657488 325.822845,240.578748 C324.677176,239.478354 323.082688,238.938984 321.082687,238.938984 Z" id="Fill-43" fill="#FFFFFF"></path>
                <path d="M340.44883,245.070874 C341.37009,245.070874 342.177176,245.318905 342.897649,245.813 C343.616153,246.285441 344.155523,246.980323 344.559066,247.856307 C344.964578,248.755913 345.143712,249.722449 345.143712,250.777567 L345.143712,251.092528 C345.143712,252.844496 344.716546,254.259851 343.840562,255.314969 C342.986231,256.393709 341.864184,256.933079 340.470483,256.933079 C339.078751,256.933079 337.933082,256.393709 337.078751,255.314969 C336.202767,254.259851 335.775601,252.889772 335.775601,251.204732 L335.775601,250.935047 C335.775601,249.183079 336.22442,247.767724 337.078751,246.710638 C337.954735,245.610244 339.078751,245.070874 340.44883,245.070874 Z M340.44883,243.767724 C339.234263,243.767724 338.157491,244.061031 337.212609,244.667331 C336.269696,245.251976 335.52757,246.082685 335.011822,247.161425 C334.494105,248.238197 334.22442,249.452764 334.22442,250.777567 L334.22442,251.092528 C334.22442,253.24804 334.809066,254.978355 335.954735,256.281504 C337.124027,257.584654 338.627964,258.212607 340.470483,258.212607 C341.683082,258.212607 342.761822,257.921268 343.704735,257.336622 C344.649617,256.753945 345.389775,255.94489 345.907491,254.86615 C346.423239,253.78741 346.692924,252.553158 346.692924,251.204732 L346.692924,250.889772 C346.692924,248.732291 346.110247,247.025598 344.964578,245.722449 C343.795287,244.419299 342.313003,243.767724 340.44883,243.767724 Z" id="Fill-45" fill="#FFFFFF"></path>
                <path d="M359.543319,243.767724 C358.600405,243.767724 357.746074,243.97048 356.960641,244.397646 C356.196862,244.824811 355.545287,245.452764 355.02757,246.285441 L354.982295,244.015756 L353.500011,244.015756 L353.500011,257.966544 L355.051192,257.966544 L355.051192,248.395677 C355.387807,247.318906 355.903555,246.486228 356.600405,245.946858 C357.297256,245.385835 358.127964,245.094496 359.0945,245.094496 C360.240169,245.094496 361.092531,245.407488 361.655523,245.992134 C362.194893,246.57678 362.486232,247.474417 362.486232,248.665362 L362.486232,257.966544 L364.035445,257.966544 L364.035445,248.732291 C364.125996,247.722449 364.553161,246.89174 365.316941,246.19489 C366.08072,245.476386 367.023634,245.11615 368.124028,245.094496 C369.314972,245.094496 370.190957,245.407488 370.708673,246.015756 C371.248043,246.598433 371.517728,247.519693 371.517728,248.777567 L371.517728,257.966544 L373.066941,257.966544 L373.066941,248.665362 C373.000011,245.385835 371.472453,243.767724 368.484264,243.767724 C367.474421,243.767724 366.574815,243.994102 365.720484,244.464575 C364.889775,244.937016 364.238201,245.610244 363.744106,246.464575 C363.137807,244.667331 361.744106,243.767724 359.543319,243.767724 Z" id="Fill-47" fill="#FFFFFF"></path>
                <path d="M386.18702,245.094496 C387.511823,245.094496 388.523634,245.610244 389.242138,246.643709 C389.984264,247.677173 390.342532,249.092528 390.342532,250.868118 C390.342532,252.822843 389.984264,254.32678 389.242138,255.381898 C388.523634,256.415363 387.511823,256.933079 386.232296,256.933079 C385.287414,256.933079 384.480327,256.70867 383.783477,256.281504 C383.086626,255.877961 382.570878,255.269693 382.210642,254.462607 L382.210642,247.767724 C382.570878,246.913394 383.086626,246.240165 383.759855,245.789378 C384.435052,245.340559 385.244107,245.094496 386.18702,245.094496 Z M386.545288,243.767724 C384.635839,243.767724 383.177178,244.50985 382.165367,245.992134 L382.098437,244.015756 L380.66143,244.015756 L380.66143,263.334654 L382.210642,263.334654 L382.210642,256.214575 C383.220485,257.561032 384.681115,258.212607 386.590564,258.212607 C388.18702,258.212607 389.488201,257.584654 390.454737,256.32678 C391.421272,255.045284 391.893713,253.316937 391.893713,251.137803 L391.893713,250.911425 C391.893713,248.665362 391.421272,246.913394 390.454737,245.65552 C389.511823,244.397646 388.208674,243.767724 386.545288,243.767724 Z" id="Fill-49" fill="#FFFFFF"></path>
                <path d="M407.505919,251.047252 L407.505919,254.10237 C407.145682,254.956701 406.539383,255.608276 405.732296,256.10237 C404.923241,256.618118 404.001981,256.86615 402.968517,256.86615 C402.047257,256.86615 401.283477,256.596465 400.698832,256.078748 C400.137808,255.563 399.846469,254.911425 399.846469,254.147646 C399.846469,253.18111 400.271666,252.440953 401.147651,251.901583 C402.001981,251.338591 403.21458,251.068906 404.742139,251.047252 L407.505919,251.047252 Z M403.978359,243.767724 C402.474422,243.767724 401.216548,244.173236 400.183084,244.982291 C399.149619,245.789378 398.631903,246.755913 398.631903,247.856307 L400.183084,247.879929 C400.183084,247.092528 400.519698,246.440953 401.238202,245.879929 C401.935052,245.340559 402.83269,245.070874 403.91143,245.070874 C405.080722,245.070874 405.978359,245.364181 406.584659,245.925205 C407.190958,246.486228 407.505919,247.27363 407.505919,248.283473 L407.505919,249.856307 L404.720485,249.856307 C402.698832,249.856307 401.125997,250.261819 399.980328,251.047252 C398.856312,251.832685 398.295288,252.911425 398.295288,254.259851 C398.295288,255.40552 398.698832,256.348433 399.531509,257.112213 C400.362218,257.854339 401.462611,258.212607 402.789383,258.212607 C403.732296,258.212607 404.608281,258.033473 405.438989,257.651583 C406.29332,257.269693 406.990171,256.730323 407.527572,256.011819 C407.572848,256.887803 407.663399,257.517725 407.820879,257.966544 L409.460643,257.966544 L409.460643,257.809063 C409.190958,257.135835 409.033478,256.124024 409.033478,254.775599 L409.033478,248.19489 C409.011824,246.801189 408.561037,245.700795 407.641745,244.937016 C406.763793,244.149614 405.529541,243.767724 403.978359,243.767724 Z" id="Fill-51" fill="#FFFFFF"></path>
                <path d="M422.917336,243.767724 C421.974423,243.767724 421.09647,243.994102 420.311037,244.442921 C419.525604,244.89174 418.874029,245.543315 418.356313,246.397646 L418.311037,244.015756 L416.828753,244.015756 L416.828753,257.966544 L418.379935,257.966544 L418.379935,248.419299 C418.716549,247.407488 419.255919,246.598433 419.996076,246.015756 C420.738202,245.407488 421.592533,245.094496 422.535447,245.094496 C423.681116,245.094496 424.511825,245.407488 425.029541,246.015756 C425.545289,246.622055 425.814974,247.564969 425.814974,248.801189 L425.814974,257.966544 L427.364187,257.966544 L427.364187,248.822843 C427.342533,247.137803 426.982297,245.858276 426.24214,245.025598 C425.523636,244.173236 424.39962,243.767724 422.917336,243.767724 Z" id="Fill-53" fill="#FFFFFF"></path>
                <path d="M433.431116,244.015756 L438.687022,257.854339 L437.990171,259.740166 C437.677179,260.639772 437.271668,261.291347 436.801195,261.651583 C436.328754,262.033473 435.722455,262.212607 434.958675,262.212607 L434.171274,262.145678 L434.171274,263.425205 C434.598439,263.53741 435.003951,263.604339 435.362219,263.604339 C436.956707,263.604339 438.147652,262.751977 438.911431,261.066937 L439.226392,260.348434 L445.179148,244.015756 L443.517731,244.015756 L439.450801,255.742134 L435.116156,244.015756 L433.431116,244.015756 Z" id="Fill-55" fill="#FFFFFF"></path>
                <path d="M212.483444,196.118117 L191.700833,230.06607 L207.638471,230.06607 C214.029704,230.06607 219.196042,225.003885 219.196042,218.743491 L219.196042,196.118117 L212.483444,196.118117 Z" id="Fill-57" fill="#E52421"></path>
            </g>
        </g>
    </g>
</svg>